<?xml version="1.0" encoding="UTF-8"?>
<svg id="Layer_1" data-name="Layer 1" xmlns="http://www.w3.org/2000/svg" viewBox="0 0 360.05 240.07">
  <defs>
    <style>
      .cls-1 {
        opacity: .05;
      }

      .cls-1, .cls-2, .cls-3 {
        fill: #e11b22;
      }

      .cls-4 {
        stroke: #e11b22;
        stroke-width: 1.5px;
      }

      .cls-4, .cls-5, .cls-6 {
        fill: none;
        stroke-miterlimit: 10;
      }

      .cls-2 {
        opacity: .1;
      }

      .cls-5 {
        stroke: #fff;
        stroke-width: 1.08px;
      }

      .cls-7 {
        fill: #fff;
      }

      .cls-8 {
        fill: #424143;
      }

      .cls-6 {
        stroke: #b3b3b3;
      }
    </style>
  </defs>
  <rect class="cls-2" x="259.31" y="63.88" width="100.74" height="174.68"/>
  <rect class="cls-1" x="160.2" y="63.88" width="99.11" height="174.68"/>
  <rect class="cls-3" width="360.05" height="65.2"/>
  <g>
    <path class="cls-7" d="M191.51,12.12c0,1.3-.32,2.3-.97,3s-1.57,1.05-2.77,1.05-2.13-.35-2.77-1.05-.97-1.7-.97-3.01,.32-2.3,.97-2.99,1.57-1.03,2.78-1.03,2.13,.35,2.77,1.04c.64,.7,.96,1.69,.96,3Zm-5.73,0c0,.88,.17,1.54,.5,1.98,.33,.44,.83,.67,1.49,.67,1.33,0,1.99-.88,1.99-2.65s-.66-2.65-1.98-2.65c-.66,0-1.16,.22-1.5,.67-.34,.45-.5,1.11-.5,1.98Z"/>
    <path class="cls-7" d="M197.18,16.05h-4.74v-.97l2.78-3.79h-2.62v-1.25h4.48v1.06l-2.71,3.69h2.8v1.25Z"/>
    <path class="cls-7" d="M201.09,16.16c-.97,0-1.72-.27-2.27-.8-.54-.53-.82-1.29-.82-2.27s.25-1.78,.75-2.33c.5-.55,1.2-.83,2.09-.83s1.51,.24,1.98,.73,.71,1.15,.71,2v.79h-3.87c.02,.47,.16,.83,.41,1.09,.26,.26,.62,.39,1.08,.39,.36,0,.7-.04,1.03-.11s.66-.2,1.01-.36v1.27c-.29,.14-.59,.25-.92,.32-.33,.07-.72,.1-1.19,.1Zm-.23-5.06c-.35,0-.62,.11-.82,.33-.2,.22-.31,.53-.34,.94h2.3c0-.41-.11-.72-.32-.94-.2-.22-.48-.33-.83-.33Z"/>
    <path class="cls-7" d="M210.25,16.05h-1.64v-3.51c0-.43-.07-.76-.22-.97-.14-.22-.37-.33-.68-.33-.42,0-.72,.15-.91,.46-.19,.31-.28,.81-.28,1.52v2.83h-1.64v-6h1.25l.22,.77h.09c.16-.28,.39-.49,.7-.65,.3-.16,.65-.23,1.05-.23,.9,0,1.51,.29,1.83,.88h.15c.16-.28,.4-.5,.71-.65,.31-.15,.67-.23,1.06-.23,.68,0,1.19,.17,1.54,.52s.52,.91,.52,1.68v3.92h-1.64v-3.51c0-.43-.07-.76-.22-.97-.14-.22-.37-.33-.68-.33-.4,0-.7,.14-.9,.43-.2,.29-.3,.74-.3,1.36v3.01Z"/>
    <path class="cls-7" d="M218.97,16.16c-.71,0-1.26-.26-1.66-.77h-.09c.06,.5,.09,.79,.09,.87v2.43h-1.64V10.05h1.33l.23,.78h.08c.38-.59,.95-.89,1.7-.89,.71,0,1.26,.27,1.67,.82,.4,.55,.6,1.31,.6,2.28,0,.64-.09,1.2-.28,1.67-.19,.47-.46,.83-.8,1.08-.35,.25-.76,.37-1.22,.37Zm-.48-4.92c-.41,0-.7,.12-.89,.37-.19,.25-.28,.66-.29,1.23v.18c0,.64,.1,1.11,.29,1.39,.19,.28,.49,.42,.91,.42,.73,0,1.1-.6,1.1-1.82,0-.59-.09-1.03-.27-1.33-.18-.29-.46-.44-.85-.44Z"/>
    <path class="cls-7" d="M222.56,8.49c0-.53,.3-.8,.89-.8s.89,.27,.89,.8c0,.25-.07,.45-.22,.59s-.37,.21-.67,.21c-.59,0-.89-.27-.89-.81Zm1.71,7.56h-1.64v-6h1.64v6Z"/>
    <path class="cls-7" d="M228.43,16.16c-1.87,0-2.8-1.03-2.8-3.08,0-1.02,.25-1.8,.76-2.34,.51-.54,1.24-.81,2.19-.81,.69,0,1.32,.14,1.87,.41l-.48,1.27c-.26-.1-.5-.19-.72-.25-.22-.07-.44-.1-.67-.1-.85,0-1.28,.61-1.28,1.82s.43,1.76,1.28,1.76c.31,0,.61-.04,.88-.13s.54-.22,.81-.39v1.4c-.26,.17-.53,.29-.8,.35s-.61,.1-1.02,.1Z"/>
    <path class="cls-7" d="M231.1,10.1c0-.42,.1-.81,.31-1.17s.5-.65,.86-.86,.76-.32,1.18-.32,.81,.1,1.17,.31,.65,.5,.86,.86,.32,.76,.32,1.18-.1,.8-.3,1.16-.49,.65-.85,.87c-.37,.22-.77,.33-1.2,.33s-.83-.11-1.2-.32-.65-.5-.85-.87c-.2-.36-.31-.75-.31-1.16Zm.34,0c0,.36,.09,.69,.27,1,.18,.31,.42,.56,.74,.74,.31,.18,.65,.27,1.01,.27s.69-.09,1-.27c.31-.18,.56-.43,.74-.74,.18-.31,.27-.65,.27-1.01s-.09-.69-.27-1c-.18-.31-.43-.56-.74-.74-.31-.18-.65-.27-1.01-.27s-.69,.09-1.01,.27c-.31,.18-.56,.42-.74,.74s-.27,.65-.27,1.01Zm2.97-.57c0,.17-.04,.32-.13,.45-.09,.13-.21,.22-.37,.28l.75,1.24h-.55l-.64-1.11h-.4v1.11h-.49v-2.8h.82c.35,0,.61,.07,.77,.21s.24,.34,.24,.62Zm-1.35,.47h.32c.17,0,.3-.04,.39-.12,.09-.08,.14-.19,.14-.33,0-.15-.04-.26-.13-.33-.09-.07-.22-.1-.41-.1h-.31v.89Z"/>
    <path class="cls-7" d="M200.81,29.25h-1.66v-4.54c0-.09,0-.21,0-.34,0-.13,0-.27,.01-.41,0-.14,.01-.28,.02-.43,0-.14,0-.27,.01-.39-.02,.02-.05,.05-.09,.1s-.09,.09-.14,.14-.11,.1-.17,.16c-.06,.05-.11,.1-.17,.15l-.9,.72-.81-1,2.53-2.01h1.36v7.85Z"/>
    <path class="cls-7" d="M211.57,29.25h-1.64v-3.51c0-.43-.07-.76-.22-.97-.14-.22-.37-.33-.68-.33-.42,0-.72,.15-.91,.46-.19,.31-.29,.81-.29,1.52v2.83h-1.64v-6h1.25l.22,.77h.09c.16-.28,.39-.49,.7-.65,.3-.16,.65-.23,1.05-.23,.9,0,1.51,.29,1.83,.88h.14c.16-.28,.4-.5,.71-.65,.31-.15,.67-.23,1.06-.23,.68,0,1.2,.17,1.54,.52s.52,.91,.52,1.68v3.92h-1.64v-3.51c0-.43-.07-.76-.22-.97-.14-.22-.37-.33-.68-.33-.4,0-.7,.14-.9,.43-.2,.29-.3,.74-.3,1.36v3.01Z"/>
    <path class="cls-7" d="M222.24,29.26c0,.86-.25,1.52-.75,1.96-.5,.45-1.25,.67-2.25,.67-.88,0-1.62-.12-2.25-.35v-1.31c.73,.31,1.51,.46,2.34,.46s1.26-.46,1.26-1.36v-.12l.05-.74h-.05c-.38,.59-.95,.89-1.7,.89s-1.28-.28-1.67-.83c-.4-.55-.59-1.31-.59-2.27s.21-1.75,.62-2.3c.41-.55,.97-.83,1.69-.83s1.32,.29,1.74,.88h.04l.13-.77h1.39v6.02Zm-2.76-1.19c.44,0,.75-.13,.95-.38,.19-.25,.28-.66,.28-1.23v-.2c0-.64-.1-1.1-.3-1.38-.2-.28-.52-.42-.96-.42-.77,0-1.15,.61-1.15,1.82,0,.6,.1,1.05,.29,1.35,.19,.3,.49,.45,.89,.45Z"/>
    <path class="cls-7" d="M192.8,38.41c0-.47,.03-.92,.08-1.37,.06-.45,.15-.88,.26-1.29,.12-.42,.27-.82,.45-1.2,.18-.38,.4-.74,.65-1.08h.81c-.22,.35-.42,.73-.6,1.12s-.32,.8-.44,1.22c-.12,.42-.21,.85-.27,1.29-.06,.44-.09,.88-.09,1.32,0,.91,.12,1.79,.36,2.65,.24,.86,.59,1.65,1.05,2.37h-.82c-.25-.35-.47-.71-.65-1.11-.18-.39-.33-.8-.45-1.23-.12-.43-.21-.87-.26-1.32-.06-.45-.08-.91-.08-1.37Z"/>
    <path class="cls-7" d="M200.15,41.79v-3.43c0-.44-.1-.76-.29-.97-.19-.21-.5-.32-.91-.32-.55,0-.95,.15-1.2,.46-.25,.3-.37,.8-.37,1.49v2.78h-.88v-5.36h.71l.13,.73h.05c.17-.26,.4-.47,.7-.61,.3-.14,.63-.22,.99-.22,.66,0,1.15,.16,1.46,.48s.48,.82,.48,1.49v3.49h-.87Z"/>
    <path class="cls-7" d="M202.33,37.92v-.73h4.51v.73h-4.51Zm0,2v-.73h4.51v.73h-4.51Z"/>
    <path class="cls-7" d="M212.65,40.18h-1.04v1.6h-.86v-1.6h-3.3v-.78l3.24-4.8h.92v4.77h1.04v.81Zm-1.9-.81v-1.74c0-.18,0-.37,0-.57s.01-.4,.02-.59c0-.19,.01-.37,.02-.53,0-.17,.01-.3,.02-.42h-.04c-.02,.06-.05,.14-.09,.22-.03,.08-.07,.16-.11,.24-.04,.08-.08,.16-.12,.23-.04,.07-.08,.14-.12,.19l-2.01,2.97h2.43Z"/>
    <path class="cls-7" d="M215.61,34.53c.27,0,.53,.04,.77,.11,.24,.07,.46,.18,.64,.32,.18,.14,.33,.32,.44,.54s.16,.46,.16,.75c0,.22-.03,.42-.1,.59-.07,.18-.16,.33-.27,.48-.11,.14-.25,.27-.41,.38s-.33,.21-.51,.31c.19,.1,.37,.21,.55,.34,.18,.12,.34,.26,.48,.42,.14,.16,.26,.33,.34,.52,.09,.19,.13,.41,.13,.64,0,.3-.05,.57-.16,.81-.11,.24-.26,.45-.46,.62-.2,.17-.43,.3-.71,.39-.27,.09-.58,.14-.91,.14-.36,0-.68-.04-.96-.13s-.51-.21-.7-.38c-.19-.16-.33-.37-.43-.6-.1-.24-.15-.51-.15-.81,0-.24,.04-.46,.11-.66s.17-.37,.3-.53c.12-.16,.27-.29,.44-.42,.17-.12,.35-.23,.54-.32-.16-.1-.31-.21-.45-.33-.14-.12-.26-.25-.36-.4s-.18-.31-.24-.49c-.06-.18-.09-.37-.09-.59,0-.28,.05-.53,.16-.75,.11-.21,.26-.39,.44-.53,.19-.14,.4-.25,.64-.32,.24-.07,.5-.11,.76-.11Zm-1.37,5.44c0,.17,.03,.33,.08,.48,.05,.15,.13,.27,.24,.37,.11,.1,.25,.18,.42,.24,.17,.06,.37,.09,.61,.09s.43-.03,.6-.09c.17-.06,.32-.14,.44-.24,.12-.11,.21-.23,.26-.38,.06-.15,.09-.32,.09-.5,0-.17-.03-.32-.1-.46s-.15-.26-.27-.38c-.12-.12-.26-.23-.43-.33-.17-.1-.35-.21-.56-.31l-.15-.07c-.41,.2-.72,.42-.93,.67-.21,.25-.31,.56-.31,.92Zm1.36-4.7c-.35,0-.62,.09-.82,.26-.2,.17-.3,.42-.3,.75,0,.19,.03,.34,.08,.48,.06,.13,.14,.25,.24,.36,.1,.1,.22,.2,.36,.28s.3,.16,.46,.24c.16-.07,.3-.15,.44-.23,.14-.08,.26-.18,.36-.29s.18-.23,.24-.37,.09-.29,.09-.47c0-.33-.1-.58-.31-.75-.21-.17-.49-.26-.84-.26Z"/>
    <path class="cls-7" d="M223.39,38.21c0,.58-.04,1.09-.12,1.55-.08,.46-.22,.84-.4,1.16-.18,.32-.42,.56-.71,.72-.29,.17-.64,.25-1.05,.25-.38,0-.72-.08-1-.25-.28-.17-.52-.41-.71-.72-.19-.32-.33-.7-.42-1.16-.09-.46-.14-.97-.14-1.55s.04-1.09,.12-1.55c.08-.46,.21-.84,.4-1.16,.18-.31,.42-.55,.7-.72s.64-.25,1.05-.25c.39,0,.72,.08,1.01,.25,.29,.17,.52,.4,.71,.72,.19,.31,.33,.7,.42,1.16,.09,.46,.14,.97,.14,1.55Zm-3.66,0c0,.49,.02,.91,.07,1.28,.05,.36,.13,.67,.23,.91,.11,.24,.25,.42,.42,.55,.17,.12,.39,.18,.64,.18s.46-.06,.64-.18c.18-.12,.32-.3,.43-.54,.11-.24,.19-.54,.24-.91,.05-.37,.08-.79,.08-1.29s-.03-.92-.08-1.28c-.05-.37-.13-.67-.24-.91-.11-.24-.26-.42-.43-.54-.18-.12-.39-.18-.64-.18s-.46,.06-.64,.18c-.17,.12-.31,.3-.42,.54-.11,.24-.19,.54-.23,.91-.05,.36-.07,.79-.07,1.28Z"/>
    <path class="cls-7" d="M226.72,38.49c0,.46-.03,.92-.09,1.37-.06,.45-.14,.88-.26,1.29-.12,.42-.27,.82-.45,1.2-.18,.38-.4,.74-.65,1.08h-.81c.22-.36,.42-.73,.6-1.12s.32-.8,.44-1.22c.12-.42,.21-.85,.27-1.29,.06-.44,.09-.88,.09-1.32,0-.91-.12-1.79-.36-2.65-.24-.86-.59-1.65-1.05-2.37h.82c.25,.34,.47,.71,.65,1.11,.18,.39,.33,.8,.45,1.23,.12,.43,.21,.87,.26,1.32,.06,.45,.09,.91,.09,1.37Z"/>
    <path class="cls-7" d="M209.04,52.52c0,.31-.03,.59-.09,.83-.06,.25-.16,.46-.29,.63-.13,.17-.3,.3-.5,.39-.2,.09-.45,.13-.73,.13-.26,0-.49-.04-.69-.13-.2-.09-.36-.22-.5-.39-.14-.17-.24-.38-.3-.63s-.1-.53-.1-.83,.03-.59,.09-.84c.06-.25,.16-.46,.29-.63s.3-.3,.5-.39c.2-.09,.44-.13,.71-.13s.5,.04,.7,.13c.2,.09,.37,.22,.51,.39s.24,.38,.31,.63c.07,.25,.1,.53,.1,.84Zm-2.41,0c0,.43,.06,.75,.19,.97,.12,.21,.33,.32,.61,.32,.55,0,.82-.43,.82-1.29s-.27-1.29-.82-1.29c-.28,0-.48,.11-.61,.32-.13,.21-.19,.54-.19,.97Zm5.69-1.88l-4.24,6.84h-.86l4.25-6.84h.85Zm1.36,4.96c0,.31-.03,.59-.09,.83-.06,.25-.16,.45-.29,.63-.13,.17-.3,.3-.5,.39-.2,.09-.45,.14-.73,.14-.26,0-.49-.05-.69-.14-.2-.09-.36-.22-.5-.39-.13-.17-.23-.38-.3-.63-.07-.25-.1-.52-.1-.83s.03-.59,.09-.84,.16-.46,.29-.62c.13-.17,.29-.3,.49-.39,.2-.09,.44-.13,.71-.13s.5,.04,.7,.13c.2,.09,.37,.22,.5,.39,.13,.17,.24,.38,.3,.62,.07,.25,.1,.53,.1,.84Zm-2.41,0c0,.43,.06,.75,.19,.96,.13,.21,.33,.32,.61,.32,.55,0,.82-.43,.82-1.28s-.27-1.29-.82-1.29c-.28,0-.48,.11-.61,.32-.12,.21-.19,.54-.19,.97Z"/>
  </g>
  <line class="cls-6" x1="360.05" y1="65.2" x2="0" y2="65.2"/>
  <g>
    <path class="cls-8" d="M10.87,86.18h-1.15l-4.21-6.52h-.04l.03,.44c.04,.65,.06,1.22,.06,1.7v4.39h-.91v-7.85h1.14l.24,.38,2.58,3.99,1.37,2.13h.04c0-.09-.02-.39-.04-.92-.02-.53-.03-.91-.03-1.15v-4.43h.92v7.85Z"/>
    <path class="cls-8" d="M16.51,86.18l-.19-.84h-.04c-.29,.37-.59,.62-.88,.75-.29,.13-.66,.2-1.1,.2-.58,0-1.03-.15-1.36-.46-.33-.3-.49-.73-.49-1.29,0-1.2,.94-1.82,2.83-1.88l1-.04v-.35c0-.45-.1-.78-.29-.99-.19-.21-.5-.32-.93-.32-.31,0-.61,.05-.88,.14-.28,.09-.54,.2-.78,.31l-.29-.73c.3-.16,.62-.28,.97-.37,.35-.09,.7-.13,1.04-.13,.71,0,1.24,.16,1.59,.47,.35,.31,.52,.82,.52,1.5v4.02h-.7Zm-1.99-.67c.54,0,.97-.15,1.28-.44,.31-.29,.46-.71,.46-1.24v-.53l-.87,.04c-.68,.02-1.17,.13-1.48,.32-.31,.19-.46,.49-.46,.9,0,.31,.09,.54,.28,.71,.19,.16,.45,.25,.79,.25Z"/>
    <path class="cls-8" d="M19.95,80.29v3.8c0,.48,.11,.83,.32,1.06,.21,.23,.54,.35,.99,.35,.6,0,1.04-.17,1.32-.5,.28-.34,.41-.88,.41-1.63v-3.07h.97v5.9h-.79l-.14-.78h-.05c-.17,.28-.42,.5-.75,.66s-.7,.23-1.12,.23c-.71,0-1.24-.17-1.6-.51-.36-.34-.54-.88-.54-1.63v-3.86h.98Z"/>
    <path class="cls-8" d="M29.68,84.56c0,.55-.21,.98-.62,1.28-.41,.3-.99,.45-1.74,.45s-1.39-.12-1.85-.37v-.88c.65,.31,1.27,.47,1.87,.47,.49,0,.84-.08,1.06-.24,.22-.16,.33-.37,.33-.63,0-.23-.11-.43-.32-.59s-.59-.35-1.14-.55c-.56-.21-.95-.4-1.17-.55-.23-.15-.39-.32-.5-.51s-.16-.42-.16-.69c0-.48,.2-.86,.59-1.14,.39-.28,.93-.42,1.62-.42s1.3,.13,1.88,.4l-.33,.77c-.6-.25-1.14-.38-1.62-.38-.4,0-.71,.06-.91,.19-.21,.13-.31,.3-.31,.52s.09,.39,.27,.53c.18,.14,.6,.34,1.25,.59,.49,.18,.85,.35,1.09,.51s.41,.33,.52,.53c.11,.2,.17,.43,.17,.71Z"/>
    <path class="cls-8" d="M33.61,86.29c-.88,0-1.58-.27-2.08-.8-.5-.54-.75-1.27-.75-2.21s.23-1.7,.7-2.26c.47-.56,1.1-.84,1.9-.84,.74,0,1.33,.24,1.77,.72,.44,.48,.66,1.13,.66,1.94v.59h-4.04c.02,.67,.19,1.18,.51,1.53s.78,.52,1.37,.52c.31,0,.61-.03,.9-.08,.28-.06,.61-.16,.99-.32v.85c-.33,.14-.63,.24-.92,.3-.29,.06-.62,.09-1.01,.09Zm-.24-5.32c-.46,0-.83,.15-1.1,.45s-.43,.71-.48,1.24h3c0-.55-.13-.97-.38-1.26s-.6-.43-1.05-.43Z"/>
    <path class="cls-8" d="M40.95,86.18l-.19-.84h-.04c-.29,.37-.59,.62-.88,.75-.29,.13-.66,.2-1.1,.2-.58,0-1.04-.15-1.36-.46-.33-.3-.49-.73-.49-1.29,0-1.2,.94-1.82,2.83-1.88l1-.04v-.35c0-.45-.1-.78-.29-.99-.19-.21-.5-.32-.93-.32-.31,0-.61,.05-.88,.14s-.54,.2-.78,.31l-.3-.73c.3-.16,.62-.28,.97-.37,.35-.09,.7-.13,1.04-.13,.71,0,1.24,.16,1.59,.47,.35,.31,.52,.82,.52,1.5v4.02h-.7Zm-1.99-.67c.54,0,.97-.15,1.28-.44,.31-.29,.46-.71,.46-1.24v-.53l-.87,.04c-.68,.02-1.17,.13-1.48,.32s-.46,.49-.46,.9c0,.31,.09,.54,.28,.71,.19,.16,.45,.25,.79,.25Z"/>
  </g>
  <g>
    <path class="cls-8" d="M307.86,86.41h-1.81v-4.96c0-.1,0-.22,0-.37s0-.29,.01-.45l.02-.47c0-.16,.01-.3,.01-.43-.02,.02-.05,.06-.1,.11s-.1,.1-.16,.16-.12,.11-.18,.17-.12,.11-.18,.16l-.98,.79-.88-1.09,2.76-2.2h1.49v8.57Z"/>
    <path class="cls-8" d="M316.04,84.64h-1.03v1.78h-1.76v-1.78h-3.54v-1.26l3.64-5.53h1.66v5.38h1.03v1.41Zm-2.79-1.41v-1.45c0-.05,0-.12,0-.22s0-.2,0-.33,0-.25,.01-.38,.01-.25,.02-.37,.01-.22,.02-.31,.01-.15,.01-.19h-.05c-.07,.16-.15,.34-.24,.52s-.19,.37-.3,.55l-1.43,2.17h1.95Z"/>
  </g>
  <g>
    <path class="cls-8" d="M207.93,86.41h-1.81v-4.96c0-.1,0-.22,0-.37s0-.29,.01-.45l.02-.47c0-.16,.01-.3,.01-.43-.02,.02-.05,.06-.1,.11s-.1,.1-.16,.16-.12,.11-.18,.17-.12,.11-.18,.16l-.98,.79-.88-1.09,2.76-2.2h1.49v8.57Z"/>
    <path class="cls-8" d="M213.26,80.94c.37,0,.71,.06,1.03,.17s.59,.28,.83,.5,.42,.49,.55,.82,.2,.7,.2,1.12c0,.46-.07,.88-.22,1.25s-.36,.68-.64,.94-.63,.45-1.05,.59-.89,.21-1.43,.21c-.21,0-.43,0-.64-.03s-.41-.05-.61-.08-.38-.08-.55-.14-.33-.13-.47-.21v-1.56c.14,.08,.29,.15,.47,.22s.37,.13,.56,.18,.39,.09,.58,.12,.38,.04,.56,.04c.52,0,.92-.11,1.2-.33s.41-.56,.41-1.03c0-.42-.13-.74-.4-.96s-.68-.33-1.24-.33c-.1,0-.21,0-.33,.02s-.23,.03-.34,.05-.22,.04-.32,.06-.19,.04-.26,.07l-.72-.39,.32-4.37h4.52v1.54h-2.95l-.14,1.68c.12-.03,.27-.05,.44-.08s.38-.04,.64-.04Z"/>
  </g>
  <line class="cls-6" x1="360.05" y1="99.9" x2="0" y2="99.9"/>
  <g>
    <path class="cls-8" d="M10.93,116.88c0,1.3-.35,2.29-1.06,2.97-.71,.69-1.72,1.03-3.04,1.03h-2.19v-7.85h2.42c1.22,0,2.17,.34,2.85,1.01,.68,.67,1.02,1.62,1.02,2.84Zm-1.04,.03c0-1-.25-1.76-.74-2.27-.49-.51-1.24-.77-2.23-.77h-1.29v6.16h1.07c2.13,0,3.19-1.04,3.19-3.12Z"/>
    <path class="cls-8" d="M12.46,113.39c0-.21,.05-.37,.16-.47,.11-.1,.24-.15,.41-.15,.15,0,.28,.05,.39,.15,.11,.1,.17,.25,.17,.47s-.06,.37-.17,.47c-.11,.1-.24,.15-.39,.15-.16,0-.3-.05-.41-.15-.11-.1-.16-.26-.16-.47Zm1.04,7.49h-.97v-5.9h.97v5.9Z"/>
    <path class="cls-8" d="M19.01,120.88l-.19-.84h-.04c-.29,.37-.59,.62-.88,.75-.29,.13-.66,.2-1.1,.2-.58,0-1.04-.15-1.36-.46-.33-.3-.49-.73-.49-1.29,0-1.2,.94-1.82,2.83-1.88l1-.04v-.35c0-.45-.1-.78-.29-.99-.19-.21-.5-.32-.93-.32-.31,0-.61,.05-.88,.14s-.54,.2-.78,.31l-.3-.73c.3-.16,.62-.28,.97-.37,.35-.09,.7-.13,1.04-.13,.71,0,1.24,.16,1.59,.47,.35,.31,.52,.82,.52,1.5v4.02h-.7Zm-1.99-.67c.54,0,.97-.15,1.28-.44,.31-.29,.46-.71,.46-1.24v-.53l-.87,.04c-.68,.02-1.17,.13-1.48,.32s-.46,.49-.46,.9c0,.31,.09,.54,.28,.71,.19,.16,.45,.25,.79,.25Z"/>
    <path class="cls-8" d="M24.29,114.87c.26,0,.49,.02,.69,.06l-.12,.89c-.22-.05-.43-.08-.64-.08-.31,0-.6,.09-.87,.26s-.48,.41-.63,.71c-.15,.3-.23,.64-.23,1.01v3.15h-.97v-5.9h.79l.11,1.08h.04c.23-.39,.49-.69,.8-.89,.31-.2,.64-.3,1-.3Z"/>
    <path class="cls-8" d="M28.84,114.87c.26,0,.49,.02,.69,.06l-.12,.89c-.22-.05-.43-.08-.64-.08-.31,0-.6,.09-.87,.26s-.48,.41-.63,.71c-.15,.3-.23,.64-.23,1.01v3.15h-.97v-5.9h.79l.11,1.08h.04c.23-.39,.49-.69,.8-.89,.31-.2,.64-.3,1-.3Z"/>
    <path class="cls-8" d="M34.65,120.88v-3.77c0-.48-.11-.84-.32-1.07-.21-.23-.55-.35-1-.35-.6,0-1.04,.17-1.31,.5-.28,.33-.42,.88-.42,1.65v3.05h-.97v-8.36h.97v2.45c0,.32-.02,.6-.05,.83h.06c.18-.29,.42-.51,.75-.67s.69-.24,1.09-.24c.72,0,1.25,.17,1.62,.51,.36,.34,.54,.89,.54,1.64v3.84h-.96Z"/>
    <path class="cls-8" d="M39.94,120.99c-.88,0-1.58-.27-2.08-.8-.5-.54-.75-1.27-.75-2.21s.23-1.7,.7-2.26c.47-.56,1.1-.84,1.9-.84,.74,0,1.33,.24,1.77,.72,.44,.48,.66,1.13,.66,1.94v.59h-4.04c.02,.67,.19,1.18,.51,1.53s.78,.52,1.37,.52c.31,0,.61-.03,.9-.08,.28-.06,.61-.16,.99-.32v.85c-.33,.14-.63,.24-.92,.3-.29,.06-.62,.09-1.01,.09Zm-.24-5.32c-.46,0-.83,.15-1.1,.45s-.43,.71-.48,1.24h3c0-.55-.13-.97-.38-1.26s-.6-.43-1.05-.43Z"/>
    <path class="cls-8" d="M47.28,120.88l-.19-.84h-.04c-.29,.37-.59,.62-.88,.75-.29,.13-.66,.2-1.1,.2-.58,0-1.04-.15-1.36-.46-.33-.3-.49-.73-.49-1.29,0-1.2,.94-1.82,2.83-1.88l1-.04v-.35c0-.45-.1-.78-.29-.99-.19-.21-.5-.32-.93-.32-.31,0-.61,.05-.88,.14s-.54,.2-.78,.31l-.3-.73c.3-.16,.62-.28,.97-.37,.35-.09,.7-.13,1.04-.13,.71,0,1.24,.16,1.59,.47,.35,.31,.52,.82,.52,1.5v4.02h-.7Zm-1.99-.67c.54,0,.97-.15,1.28-.44,.31-.29,.46-.71,.46-1.24v-.53l-.87,.04c-.68,.02-1.17,.13-1.48,.32s-.46,.49-.46,.9c0,.31,.09,.54,.28,.71,.19,.16,.45,.25,.79,.25Z"/>
  </g>
  <path class="cls-8" d="M312.56,116.2c0,.41-.02,.82-.07,1.23s-.12,.8-.24,1.17-.27,.72-.47,1.04-.45,.6-.75,.83-.67,.42-1.09,.55-.92,.2-1.49,.2c-.08,0-.17,0-.27,0s-.2,0-.3-.01-.2-.01-.29-.02-.18-.02-.25-.04v-1.45c.14,.04,.3,.07,.47,.09s.33,.03,.51,.03c.53,0,.96-.07,1.3-.2s.61-.31,.81-.55,.34-.52,.42-.85,.14-.69,.16-1.08h-.08c-.08,.14-.17,.27-.28,.39s-.24,.23-.39,.32-.32,.16-.5,.21-.4,.08-.63,.08c-.37,0-.71-.06-1-.18s-.55-.3-.75-.53-.36-.51-.47-.85-.16-.72-.16-1.15c0-.46,.07-.88,.2-1.25s.32-.68,.56-.93,.54-.45,.88-.59,.73-.21,1.16-.21,.82,.08,1.18,.23,.69,.38,.96,.69,.48,.7,.64,1.17,.23,1.03,.23,1.67Zm-2.98-2.3c-.16,0-.31,.03-.44,.09s-.25,.15-.34,.27-.17,.28-.22,.47-.08,.41-.08,.67c0,.41,.09,.74,.26,.98s.44,.36,.8,.36c.18,0,.34-.04,.49-.11s.28-.16,.38-.28,.19-.24,.24-.38,.08-.28,.08-.43c0-.2-.02-.4-.07-.59s-.12-.38-.22-.53-.22-.29-.37-.38-.32-.15-.51-.15Z"/>
  <path class="cls-8" d="M212.63,116.2c0,.41-.02,.82-.07,1.23s-.12,.8-.24,1.17-.27,.72-.47,1.04-.45,.6-.75,.83-.67,.42-1.09,.55-.92,.2-1.49,.2c-.08,0-.17,0-.27,0s-.2,0-.3-.01-.2-.01-.29-.02-.18-.02-.25-.04v-1.45c.14,.04,.3,.07,.47,.09s.33,.03,.51,.03c.53,0,.96-.07,1.3-.2s.61-.31,.81-.55,.34-.52,.42-.85,.14-.69,.16-1.08h-.08c-.08,.14-.17,.27-.28,.39s-.24,.23-.39,.32-.32,.16-.5,.21-.4,.08-.63,.08c-.37,0-.71-.06-1-.18s-.55-.3-.75-.53-.36-.51-.47-.85-.16-.72-.16-1.15c0-.46,.07-.88,.2-1.25s.32-.68,.56-.93,.54-.45,.88-.59,.73-.21,1.16-.21,.82,.08,1.18,.23,.69,.38,.96,.69,.48,.7,.64,1.17,.23,1.03,.23,1.67Zm-2.98-2.3c-.16,0-.31,.03-.44,.09s-.25,.15-.34,.27-.17,.28-.22,.47-.08,.41-.08,.67c0,.41,.09,.74,.26,.98s.44,.36,.8,.36c.18,0,.34-.04,.49-.11s.28-.16,.38-.28,.19-.24,.24-.38,.08-.28,.08-.43c0-.2-.02-.4-.07-.59s-.12-.38-.22-.53-.22-.29-.37-.38-.32-.15-.51-.15Z"/>
  <line class="cls-6" x1="360.05" y1="134.59" x2="0" y2="134.59"/>
  <g>
    <path class="cls-8" d="M3.57,147.72h1.04l1.77,5.04c.23,.64,.39,1.21,.49,1.71,.09-.45,.26-1.03,.5-1.73l1.76-5.02h1.05l-2.8,7.85h-.99l-2.8-7.85Z"/>
    <path class="cls-8" d="M16.12,152.62c0,.96-.24,1.72-.73,2.26-.49,.54-1.16,.81-2.02,.81-.53,0-1.01-.12-1.42-.37-.41-.25-.73-.61-.95-1.07-.22-.47-.33-1.01-.33-1.62,0-.96,.24-1.71,.72-2.24,.48-.54,1.15-.8,2.02-.8s1.49,.27,1.98,.82c.49,.55,.73,1.29,.73,2.23Zm-4.45,0c0,.74,.15,1.3,.44,1.69,.29,.39,.72,.58,1.29,.58s.99-.19,1.28-.58c.29-.38,.44-.95,.44-1.69s-.15-1.3-.44-1.67c-.29-.37-.73-.56-1.3-.56-1.14,0-1.71,.74-1.71,2.23Z"/>
    <path class="cls-8" d="M25.16,155.58v-3.8c0-.93-.4-1.4-1.2-1.4-.55,0-.95,.16-1.21,.48s-.39,.81-.39,1.46v3.25h-.96v-3.8c0-.47-.1-.81-.29-1.05-.19-.23-.5-.35-.92-.35-.54,0-.94,.17-1.2,.5-.25,.33-.38,.88-.38,1.64v3.06h-.97v-5.9h.78l.14,.81h.05c.17-.29,.41-.51,.71-.67,.31-.16,.65-.24,1.03-.24,.92,0,1.53,.33,1.8,.99h.05c.19-.31,.45-.56,.78-.73,.33-.17,.7-.26,1.11-.26,.67,0,1.17,.17,1.5,.52s.5,.89,.5,1.65v3.84h-.96Z"/>
    <path class="cls-8" d="M27.87,148.08c0-.21,.05-.37,.16-.47,.11-.1,.24-.15,.41-.15,.15,0,.28,.05,.39,.15,.11,.1,.17,.25,.17,.47s-.06,.37-.17,.47c-.11,.1-.24,.15-.39,.15-.16,0-.3-.05-.41-.15-.11-.1-.16-.26-.16-.47Zm1.04,7.49h-.97v-5.9h.97v5.9Z"/>
    <path class="cls-8" d="M32.75,154.89c.13,0,.27-.01,.44-.04,.17-.02,.3-.05,.38-.09v.74c-.09,.04-.23,.08-.42,.12-.19,.04-.38,.06-.57,.06-1.15,0-1.73-.61-1.73-1.82v-3.43h-.83v-.46l.84-.39,.39-1.26h.57v1.35h1.7v.75h-1.7v3.41c0,.34,.08,.6,.25,.78,.16,.18,.39,.27,.68,.27Z"/>
    <path class="cls-8" d="M34.67,148.08c0-.21,.05-.37,.16-.47s.24-.15,.41-.15c.15,0,.28,.05,.39,.15,.11,.1,.17,.25,.17,.47s-.06,.37-.17,.47c-.11,.1-.24,.15-.39,.15-.16,0-.3-.05-.41-.15s-.16-.26-.16-.47Zm1.04,7.49h-.97v-5.9h.97v5.9Z"/>
    <path class="cls-8" d="M41.6,155.58v-3.77c0-.48-.11-.84-.32-1.07-.21-.23-.55-.35-1-.35-.6,0-1.04,.17-1.32,.5-.27,.33-.41,.88-.41,1.64v3.06h-.97v-5.9h.78l.14,.81h.05c.18-.29,.44-.51,.77-.67,.33-.16,.69-.24,1.09-.24,.72,0,1.26,.18,1.61,.53,.35,.35,.53,.9,.53,1.64v3.84h-.96Z"/>
    <path class="cls-8" d="M48.32,155.52l.03-.73h-.04c-.4,.59-1.01,.89-1.83,.89-.76,0-1.36-.27-1.79-.8-.43-.53-.64-1.28-.64-2.25s.22-1.7,.65-2.25c.43-.55,1.02-.82,1.77-.82,.8,0,1.41,.3,1.85,.89h.06l.13-.78h.77v5.99c0,.85-.21,1.48-.64,1.91-.43,.43-1.09,.64-2,.64s-1.57-.13-2.12-.38v-.89c.57,.31,1.3,.46,2.17,.46,.5,0,.9-.15,1.19-.44,.29-.29,.44-.7,.44-1.22v-.23Zm-1.69-.63c.59,0,1.03-.16,1.3-.48,.27-.32,.41-.83,.41-1.54v-.23c0-.79-.14-1.36-.41-1.72-.27-.36-.71-.54-1.32-.54-.49,0-.88,.2-1.15,.59-.27,.39-.41,.95-.41,1.68s.13,1.29,.39,1.67c.26,.38,.66,.57,1.18,.57Z"/>
  </g>
  <path class="cls-8" d="M309.69,147.13c.36,0,.69,.04,1.01,.13s.59,.21,.83,.39,.43,.39,.57,.64,.21,.56,.21,.91c0,.26-.04,.49-.12,.7s-.19,.4-.32,.57-.3,.32-.49,.45-.39,.25-.61,.36c.23,.12,.45,.26,.67,.4s.41,.32,.58,.5,.3,.39,.4,.62,.15,.49,.15,.77c0,.36-.07,.68-.21,.97s-.34,.54-.59,.74-.56,.36-.91,.47-.74,.16-1.17,.16c-.46,0-.87-.05-1.23-.16s-.66-.26-.91-.45-.43-.44-.56-.72-.19-.61-.19-.96c0-.29,.04-.56,.13-.79s.2-.45,.35-.63,.32-.35,.52-.5,.41-.27,.64-.38c-.19-.12-.37-.25-.54-.4s-.31-.3-.44-.47-.22-.37-.29-.58-.11-.44-.11-.7c0-.34,.07-.64,.21-.89s.33-.47,.58-.64,.52-.3,.84-.39,.65-.13,1-.13Zm-1.21,6.4c0,.16,.03,.3,.08,.43s.13,.24,.23,.34,.22,.17,.37,.22,.32,.08,.52,.08c.41,0,.72-.1,.92-.29s.3-.45,.3-.76c0-.16-.03-.31-.1-.44s-.16-.25-.26-.36-.23-.21-.37-.31-.27-.18-.41-.27l-.13-.08c-.17,.09-.33,.18-.47,.28s-.26,.21-.36,.33-.18,.25-.23,.39-.08,.29-.08,.46Zm1.2-5.07c-.13,0-.25,.02-.36,.06s-.21,.1-.29,.17-.14,.17-.19,.28-.07,.23-.07,.37c0,.16,.02,.31,.07,.42s.12,.22,.2,.32,.18,.17,.29,.25,.23,.14,.35,.21c.12-.06,.24-.13,.35-.21s.21-.16,.29-.25,.15-.2,.2-.33,.08-.26,.08-.42c0-.14-.02-.26-.07-.37s-.11-.2-.19-.28-.18-.13-.29-.17-.24-.06-.37-.06Z"/>
  <path class="cls-8" d="M207.67,155.81l3.05-7.03h-3.94v-1.52h5.91v1.14l-3.12,7.42h-1.89Z"/>
  <line class="cls-6" x1="360.05" y1="169.29" x2="0" y2="169.29"/>
  <line class="cls-6" x1="360.05" y1="203.86" x2="0" y2="203.86"/>
  <g>
    <path class="cls-8" d="M10.93,186.27c0,1.3-.35,2.29-1.06,2.97-.71,.69-1.72,1.03-3.04,1.03h-2.19v-7.85h2.42c1.22,0,2.17,.34,2.85,1.01,.68,.67,1.02,1.62,1.02,2.84Zm-1.04,.03c0-1-.25-1.76-.74-2.27-.49-.51-1.24-.77-2.23-.77h-1.29v6.16h1.07c2.13,0,3.19-1.04,3.19-3.12Z"/>
    <path class="cls-8" d="M15.04,190.38c-.88,0-1.58-.27-2.08-.8-.5-.54-.75-1.27-.75-2.21s.23-1.7,.7-2.26c.47-.56,1.1-.84,1.9-.84,.74,0,1.33,.24,1.77,.72,.44,.48,.66,1.13,.66,1.94v.59h-4.04c.02,.67,.19,1.18,.51,1.53s.78,.52,1.37,.52c.32,0,.61-.03,.9-.08,.28-.06,.61-.16,.99-.32v.85c-.33,.14-.63,.24-.92,.3-.29,.06-.62,.09-1.02,.09Zm-.24-5.32c-.46,0-.83,.15-1.1,.45s-.43,.71-.48,1.24h3c0-.55-.13-.97-.38-1.26s-.6-.43-1.05-.43Z"/>
    <path class="cls-8" d="M21.1,190.38c-.85,0-1.51-.26-1.98-.78-.47-.52-.71-1.27-.71-2.24s.24-1.75,.72-2.29c.48-.54,1.16-.8,2.04-.8,.29,0,.57,.03,.85,.09,.28,.06,.51,.13,.7,.23l-.3,.81c-.5-.19-.92-.28-1.27-.28-.59,0-1.03,.19-1.32,.56-.28,.37-.42,.93-.42,1.67s.14,1.26,.42,1.64c.28,.38,.7,.57,1.26,.57,.52,0,1.03-.11,1.53-.34v.86c-.41,.21-.92,.32-1.52,.32Z"/>
    <path class="cls-8" d="M26.77,184.27c.26,0,.49,.02,.69,.06l-.12,.89c-.22-.05-.43-.08-.64-.08-.31,0-.6,.09-.87,.26-.27,.17-.48,.41-.63,.71-.15,.3-.23,.64-.23,1.01v3.15h-.97v-5.9h.79l.11,1.08h.04c.23-.39,.49-.69,.8-.89,.31-.2,.64-.3,1-.3Z"/>
    <path class="cls-8" d="M30.96,190.38c-.88,0-1.58-.27-2.08-.8-.5-.54-.75-1.27-.75-2.21s.23-1.7,.7-2.26c.47-.56,1.1-.84,1.9-.84,.74,0,1.33,.24,1.77,.72,.44,.48,.66,1.13,.66,1.94v.59h-4.04c.02,.67,.19,1.18,.51,1.53s.78,.52,1.37,.52c.32,0,.61-.03,.9-.08,.28-.06,.61-.16,.99-.32v.85c-.33,.14-.63,.24-.92,.3-.29,.06-.62,.09-1.02,.09Zm-.24-5.32c-.46,0-.83,.15-1.1,.45s-.43,.71-.48,1.24h3c0-.55-.13-.97-.38-1.26s-.6-.43-1.05-.43Z"/>
    <path class="cls-8" d="M38.3,190.27l-.19-.84h-.04c-.29,.37-.59,.62-.88,.75-.29,.13-.66,.2-1.1,.2-.58,0-1.03-.15-1.36-.46-.33-.3-.49-.73-.49-1.29,0-1.2,.94-1.82,2.83-1.88l1-.04v-.35c0-.45-.1-.78-.29-.99-.19-.21-.5-.32-.93-.32-.31,0-.61,.05-.88,.14-.28,.09-.54,.2-.78,.31l-.29-.73c.3-.16,.62-.28,.97-.37,.35-.09,.7-.13,1.04-.13,.71,0,1.24,.16,1.59,.47,.35,.31,.52,.82,.52,1.5v4.02h-.7Zm-1.99-.67c.54,0,.97-.15,1.28-.44,.31-.29,.46-.71,.46-1.24v-.53l-.87,.04c-.68,.02-1.17,.13-1.48,.32-.31,.19-.46,.49-.46,.9,0,.31,.09,.54,.28,.71,.19,.16,.45,.25,.79,.25Z"/>
    <path class="cls-8" d="M44.67,188.64c0,.55-.21,.98-.62,1.28-.41,.3-.99,.45-1.74,.45s-1.39-.12-1.85-.37v-.88c.65,.31,1.27,.47,1.87,.47,.49,0,.84-.08,1.06-.24,.22-.16,.33-.37,.33-.63,0-.23-.11-.43-.32-.59s-.59-.35-1.14-.55c-.56-.21-.95-.4-1.17-.55-.23-.15-.39-.32-.5-.51s-.16-.42-.16-.69c0-.48,.2-.86,.59-1.14,.39-.28,.93-.42,1.62-.42s1.3,.13,1.88,.4l-.33,.77c-.6-.25-1.14-.38-1.62-.38-.4,0-.71,.06-.91,.19-.21,.13-.31,.3-.31,.52s.09,.39,.27,.53c.18,.14,.6,.34,1.25,.59,.49,.18,.85,.35,1.09,.51s.41,.33,.52,.53c.11,.2,.17,.43,.17,.71Z"/>
    <path class="cls-8" d="M48.61,190.38c-.88,0-1.58-.27-2.08-.8-.5-.54-.75-1.27-.75-2.21s.23-1.7,.7-2.26c.47-.56,1.1-.84,1.9-.84,.74,0,1.33,.24,1.77,.72,.44,.48,.66,1.13,.66,1.94v.59h-4.04c.02,.67,.19,1.18,.51,1.53s.78,.52,1.37,.52c.31,0,.61-.03,.9-.08,.28-.06,.61-.16,.99-.32v.85c-.33,.14-.63,.24-.92,.3-.29,.06-.62,.09-1.01,.09Zm-.24-5.32c-.46,0-.83,.15-1.1,.45s-.43,.71-.48,1.24h3c0-.55-.13-.97-.38-1.26s-.6-.43-1.05-.43Z"/>
    <path class="cls-8" d="M54.39,190.38c-.77,0-1.36-.27-1.78-.79-.42-.53-.63-1.28-.63-2.25s.21-1.72,.64-2.26c.42-.54,1.02-.81,1.79-.81s1.4,.29,1.83,.87h.07c-.01-.07-.03-.22-.04-.43-.02-.22-.03-.36-.03-.44v-2.35h.97v8.36h-.78l-.15-.79h-.04c-.41,.6-1.02,.9-1.84,.9Zm.16-.8c.59,0,1.02-.16,1.29-.48,.27-.32,.41-.85,.41-1.58v-.18c0-.82-.14-1.4-.41-1.75-.27-.35-.71-.52-1.29-.52-.5,0-.88,.2-1.16,.59-.27,.4-.41,.96-.41,1.69s.14,1.28,.41,1.66c.27,.38,.66,.56,1.17,.56Z"/>
    <path class="cls-8" d="M65.57,190.27l-.19-.84h-.04c-.29,.37-.59,.62-.88,.75-.29,.13-.66,.2-1.1,.2-.58,0-1.04-.15-1.36-.46-.33-.3-.49-.73-.49-1.29,0-1.2,.94-1.82,2.83-1.88l1-.04v-.35c0-.45-.1-.78-.29-.99-.19-.21-.5-.32-.93-.32-.31,0-.61,.05-.88,.14s-.54,.2-.78,.31l-.3-.73c.3-.16,.62-.28,.97-.37,.35-.09,.7-.13,1.04-.13,.71,0,1.24,.16,1.59,.47,.35,.31,.52,.82,.52,1.5v4.02h-.7Zm-1.99-.67c.54,0,.97-.15,1.28-.44,.31-.29,.46-.71,.46-1.24v-.53l-.87,.04c-.68,.02-1.17,.13-1.48,.32s-.46,.49-.46,.9c0,.31,.09,.54,.28,.71,.19,.16,.45,.25,.79,.25Z"/>
    <path class="cls-8" d="M70.89,190.38c-.79,0-1.4-.28-1.83-.85h-.06l.02,.22c.03,.28,.04,.53,.04,.75v2.42h-.97v-8.54h.79l.13,.81h.04c.23-.32,.49-.56,.79-.7s.65-.21,1.04-.21c.77,0,1.36,.27,1.79,.8,.42,.53,.64,1.28,.64,2.25s-.21,1.72-.64,2.26c-.43,.54-1.02,.81-1.79,.81Zm-.16-5.3c-.58,0-1,.16-1.26,.49s-.39,.85-.4,1.55v.19c0,.8,.13,1.38,.4,1.73,.27,.36,.7,.53,1.29,.53,.49,0,.88-.2,1.16-.6,.28-.4,.42-.96,.42-1.68s-.14-1.27-.42-1.65c-.28-.38-.67-.57-1.18-.57Z"/>
    <path class="cls-8" d="M77.66,190.38c-.79,0-1.4-.28-1.83-.85h-.06l.02,.22c.03,.28,.04,.53,.04,.75v2.42h-.97v-8.54h.79l.13,.81h.04c.23-.32,.49-.56,.79-.7s.65-.21,1.04-.21c.77,0,1.36,.27,1.79,.8,.42,.53,.64,1.28,.64,2.25s-.21,1.72-.64,2.26c-.43,.54-1.02,.81-1.79,.81Zm-.16-5.3c-.58,0-1,.16-1.26,.49s-.39,.85-.4,1.55v.19c0,.8,.13,1.38,.4,1.73,.27,.36,.7,.53,1.29,.53,.49,0,.88-.2,1.16-.6,.28-.4,.42-.96,.42-1.68s-.14-1.27-.42-1.65c-.28-.38-.67-.57-1.18-.57Z"/>
    <path class="cls-8" d="M84.14,190.38c-.88,0-1.58-.27-2.08-.8-.5-.54-.75-1.27-.75-2.21s.23-1.7,.7-2.26c.47-.56,1.1-.84,1.9-.84,.74,0,1.33,.24,1.77,.72,.44,.48,.66,1.13,.66,1.94v.59h-4.04c.02,.67,.19,1.18,.51,1.53s.78,.52,1.37,.52c.31,0,.61-.03,.9-.08,.28-.06,.61-.16,.99-.32v.85c-.33,.14-.63,.24-.92,.3-.29,.06-.62,.09-1.01,.09Zm-.24-5.32c-.46,0-.83,.15-1.1,.45s-.43,.71-.48,1.24h3c0-.55-.13-.97-.38-1.26s-.6-.43-1.05-.43Z"/>
    <path class="cls-8" d="M89.81,189.59c.13,0,.27-.01,.44-.04,.17-.02,.3-.05,.38-.09v.74c-.09,.04-.23,.08-.42,.12-.19,.04-.38,.06-.57,.06-1.15,0-1.73-.61-1.73-1.82v-3.43h-.83v-.46l.84-.39,.39-1.26h.57v1.35h1.7v.75h-1.7v3.41c0,.34,.08,.6,.25,.78,.16,.18,.39,.27,.68,.27Z"/>
    <path class="cls-8" d="M91.73,182.78c0-.21,.05-.37,.16-.47s.24-.15,.41-.15c.15,0,.28,.05,.39,.15,.11,.1,.17,.25,.17,.47s-.06,.37-.17,.47c-.11,.1-.24,.15-.39,.15-.16,0-.3-.05-.41-.15s-.16-.26-.16-.47Zm1.04,7.49h-.97v-5.9h.97v5.9Z"/>
    <path class="cls-8" d="M96.62,189.59c.12,0,.27-.01,.44-.04,.17-.02,.29-.05,.38-.09v.74c-.09,.04-.23,.08-.42,.12-.19,.04-.38,.06-.57,.06-1.15,0-1.73-.61-1.73-1.82v-3.43h-.83v-.46l.84-.39,.39-1.26h.58v1.35h1.7v.75h-1.7v3.41c0,.34,.08,.6,.24,.78s.39,.27,.68,.27Z"/>
    <path class="cls-8" d="M101.12,190.38c-.88,0-1.58-.27-2.08-.8-.5-.54-.75-1.27-.75-2.21s.23-1.7,.7-2.26c.47-.56,1.1-.84,1.9-.84,.74,0,1.33,.24,1.77,.72,.44,.48,.66,1.13,.66,1.94v.59h-4.04c.02,.67,.19,1.18,.51,1.53s.78,.52,1.37,.52c.32,0,.61-.03,.9-.08,.28-.06,.61-.16,.99-.32v.85c-.33,.14-.63,.24-.92,.3-.29,.06-.62,.09-1.02,.09Zm-.24-5.32c-.46,0-.83,.15-1.1,.45s-.43,.71-.48,1.24h3c0-.55-.13-.97-.38-1.26s-.6-.43-1.05-.43Z"/>
  </g>
  <path class="cls-8" d="M306.82,186.86c0-.41,.02-.82,.07-1.22s.12-.8,.24-1.17,.27-.72,.47-1.04,.45-.6,.75-.83,.67-.42,1.09-.56,.92-.2,1.49-.2c.08,0,.17,0,.27,0s.2,0,.3,.01,.2,.01,.29,.03,.18,.03,.25,.04v1.45c-.15-.04-.31-.06-.47-.08s-.33-.03-.5-.03c-.53,0-.96,.07-1.3,.2s-.61,.31-.81,.55-.34,.52-.42,.84-.14,.69-.16,1.09h.07c.08-.14,.17-.27,.28-.4s.24-.23,.39-.32,.32-.16,.5-.21,.39-.08,.62-.08c.37,0,.71,.06,1,.18s.55,.3,.75,.53,.36,.51,.47,.85,.16,.72,.16,1.15c0,.46-.07,.88-.2,1.25s-.32,.68-.56,.93-.54,.45-.88,.59-.73,.2-1.16,.2-.82-.08-1.18-.23-.69-.38-.96-.69-.48-.7-.64-1.17-.23-1.03-.23-1.67Zm2.98,2.31c.16,0,.31-.03,.44-.09s.24-.15,.34-.28,.17-.28,.22-.47,.08-.41,.08-.67c0-.42-.09-.75-.26-.99s-.44-.36-.79-.36c-.18,0-.34,.04-.49,.11s-.28,.16-.38,.28-.19,.24-.24,.38-.08,.28-.08,.43c0,.2,.02,.4,.07,.59s.12,.38,.22,.53,.22,.29,.37,.38,.32,.15,.51,.15Z"/>
  <path class="cls-8" d="M212.81,188.73h-1.03v1.78h-1.76v-1.78h-3.54v-1.26l3.64-5.53h1.66v5.38h1.03v1.41Zm-2.79-1.41v-1.45c0-.05,0-.12,0-.22s0-.2,0-.33,0-.25,.01-.38,.01-.25,.02-.37,.01-.22,.02-.31,.01-.15,.01-.19h-.05c-.07,.16-.15,.34-.24,.52s-.19,.37-.3,.55l-1.43,2.17h1.95Z"/>
  <g>
    <path class="cls-8" d="M10.65,224.23h-.99v-3.66H5.63v3.66h-.99v-7.85h.99v3.32h4.03v-3.32h.99v7.85Z"/>
    <path class="cls-8" d="M11.74,218.34h1.04l1.27,3.36c.27,.73,.43,1.27,.49,1.61h.04c.03-.13,.11-.38,.22-.74,.11-.36,.21-.65,.29-.87l1.2-3.35h1.04l-2.54,6.71c-.25,.65-.54,1.12-.88,1.4-.34,.28-.76,.42-1.26,.42-.27,0-.54-.03-.8-.09v-.77c.18,.04,.39,.06,.64,.06,.31,0,.57-.08,.78-.25,.21-.17,.39-.43,.53-.79l.31-.78-2.37-5.92Z"/>
    <path class="cls-8" d="M21.06,224.34c-.79,0-1.4-.28-1.83-.85h-.06l.02,.22c.03,.28,.04,.53,.04,.75v2.42h-.97v-8.54h.79l.13,.81h.04c.23-.32,.49-.56,.79-.7s.65-.21,1.04-.21c.77,0,1.36,.27,1.79,.8,.42,.53,.64,1.28,.64,2.25s-.21,1.72-.64,2.26c-.43,.54-1.02,.81-1.79,.81Zm-.16-5.3c-.58,0-1,.16-1.26,.49s-.39,.85-.4,1.55v.19c0,.8,.13,1.38,.4,1.73,.27,.36,.7,.53,1.29,.53,.49,0,.88-.2,1.16-.6,.28-.4,.42-.96,.42-1.68s-.14-1.27-.42-1.65c-.28-.38-.67-.57-1.18-.57Z"/>
    <path class="cls-8" d="M30.16,221.27c0,.96-.24,1.72-.73,2.26-.49,.54-1.16,.81-2.02,.81-.53,0-1.01-.12-1.42-.37-.41-.25-.73-.61-.95-1.07-.22-.47-.33-1.01-.33-1.62,0-.96,.24-1.71,.72-2.24,.48-.54,1.15-.8,2.02-.8s1.49,.27,1.98,.82c.49,.55,.73,1.29,.73,2.23Zm-4.45,0c0,.74,.15,1.3,.44,1.69,.29,.39,.72,.58,1.29,.58s.99-.19,1.28-.58c.29-.38,.44-.95,.44-1.69s-.15-1.3-.44-1.67c-.29-.37-.73-.56-1.3-.56-1.14,0-1.71,.74-1.71,2.23Z"/>
    <path class="cls-8" d="M35.63,224.18l.03-.73h-.04c-.4,.59-1.01,.89-1.83,.89-.76,0-1.36-.27-1.79-.8-.43-.53-.64-1.28-.64-2.25s.22-1.7,.65-2.25,1.02-.82,1.77-.82c.8,0,1.42,.3,1.85,.89h.06l.13-.78h.77v5.99c0,.85-.21,1.48-.64,1.91s-1.09,.64-2,.64-1.57-.13-2.12-.38v-.89c.57,.31,1.3,.46,2.18,.46,.5,0,.9-.15,1.19-.44s.44-.7,.44-1.22v-.23Zm-1.69-.63c.59,0,1.03-.16,1.3-.48,.27-.32,.41-.83,.41-1.54v-.23c0-.79-.14-1.36-.41-1.72-.27-.36-.71-.54-1.32-.54-.49,0-.88,.2-1.15,.59-.27,.39-.41,.95-.41,1.68s.13,1.29,.4,1.67c.26,.38,.66,.57,1.18,.57Z"/>
    <path class="cls-8" d="M39.42,224.23h-.97v-8.36h.97v8.36Z"/>
    <path class="cls-8" d="M40.37,218.34h1.04l1.27,3.36c.27,.73,.43,1.27,.49,1.61h.04c.03-.13,.11-.38,.22-.74,.12-.36,.21-.65,.29-.87l1.2-3.35h1.04l-2.54,6.71c-.25,.65-.54,1.12-.88,1.4-.34,.28-.76,.42-1.26,.42-.27,0-.54-.03-.8-.09v-.77c.18,.04,.39,.06,.64,.06,.31,0,.57-.08,.78-.25,.21-.17,.39-.43,.53-.79l.31-.78-2.37-5.92Z"/>
    <path class="cls-8" d="M49.26,224.34c-.85,0-1.51-.26-1.98-.78-.47-.52-.71-1.27-.71-2.24s.24-1.75,.72-2.29c.48-.54,1.16-.8,2.04-.8,.29,0,.57,.03,.85,.09,.28,.06,.51,.13,.7,.23l-.29,.81c-.5-.19-.92-.28-1.27-.28-.59,0-1.03,.19-1.32,.56-.28,.37-.42,.93-.42,1.67s.14,1.26,.42,1.64c.28,.38,.7,.57,1.26,.57,.52,0,1.03-.11,1.53-.34v.86c-.41,.21-.92,.32-1.52,.32Z"/>
    <path class="cls-8" d="M54.69,224.34c-.88,0-1.58-.27-2.08-.8-.5-.54-.75-1.27-.75-2.21s.23-1.7,.7-2.26c.47-.56,1.1-.84,1.9-.84,.74,0,1.33,.24,1.77,.72,.44,.48,.66,1.13,.66,1.94v.59h-4.04c.02,.67,.19,1.18,.51,1.53s.78,.52,1.37,.52c.31,0,.61-.03,.9-.08,.28-.06,.61-.16,.99-.32v.85c-.33,.14-.63,.24-.92,.3-.29,.06-.62,.09-1.01,.09Zm-.24-5.32c-.46,0-.83,.15-1.1,.45s-.43,.71-.48,1.24h3c0-.55-.13-.97-.38-1.26s-.6-.43-1.05-.43Z"/>
    <path class="cls-8" d="M65.89,224.23v-3.8c0-.93-.4-1.4-1.2-1.4-.55,0-.95,.16-1.21,.48s-.39,.81-.39,1.46v3.25h-.96v-3.8c0-.47-.1-.81-.29-1.05s-.5-.35-.92-.35c-.54,0-.94,.17-1.19,.5-.25,.33-.38,.88-.38,1.64v3.06h-.97v-5.9h.78l.15,.81h.05c.17-.29,.41-.51,.71-.67,.31-.16,.65-.24,1.03-.24,.92,0,1.53,.33,1.8,.99h.05c.19-.31,.45-.56,.78-.73,.33-.17,.7-.26,1.11-.26,.67,0,1.16,.17,1.5,.52,.33,.34,.5,.89,.5,1.65v3.84h-.96Z"/>
    <path class="cls-8" d="M68.59,216.74c0-.21,.05-.37,.16-.47s.24-.15,.41-.15c.15,0,.28,.05,.39,.15,.11,.1,.17,.25,.17,.47s-.06,.37-.17,.47c-.11,.1-.24,.15-.39,.15-.16,0-.3-.05-.41-.15s-.16-.26-.16-.47Zm1.04,7.49h-.97v-5.9h.97v5.9Z"/>
    <path class="cls-8" d="M75.15,224.23l-.19-.84h-.04c-.29,.37-.59,.62-.88,.75-.29,.13-.66,.2-1.1,.2-.58,0-1.03-.15-1.36-.46-.33-.3-.49-.73-.49-1.29,0-1.2,.94-1.82,2.83-1.88l1-.04v-.35c0-.45-.1-.78-.29-.99-.19-.21-.5-.32-.93-.32-.31,0-.61,.05-.88,.14-.28,.09-.54,.2-.78,.31l-.29-.73c.3-.16,.62-.28,.97-.37,.35-.09,.7-.13,1.04-.13,.71,0,1.24,.16,1.59,.47,.35,.31,.52,.82,.52,1.5v4.02h-.7Zm-1.99-.67c.54,0,.97-.15,1.28-.44,.31-.29,.46-.71,.46-1.24v-.53l-.87,.04c-.68,.02-1.17,.13-1.48,.32-.31,.19-.46,.49-.46,.9,0,.31,.09,.54,.28,.71,.19,.16,.45,.25,.79,.25Z"/>
    <path class="cls-8" d="M80.35,220.52c0-.51,.03-1.01,.09-1.5s.16-.96,.29-1.42,.3-.9,.49-1.32c.2-.42,.44-.82,.71-1.19h.89c-.25,.39-.47,.8-.66,1.23s-.36,.88-.49,1.34c-.13,.47-.23,.94-.3,1.42-.06,.48-.1,.97-.1,1.45,0,1,.13,1.97,.39,2.91,.26,.94,.65,1.81,1.16,2.6h-.9c-.28-.38-.51-.79-.71-1.22-.2-.43-.36-.88-.49-1.35-.13-.47-.23-.95-.29-1.45-.06-.5-.09-1-.09-1.51Z"/>
    <path class="cls-8" d="M91.93,224.23v-3.8c0-.93-.4-1.4-1.2-1.4-.55,0-.95,.16-1.21,.48s-.39,.81-.39,1.46v3.25h-.96v-3.8c0-.47-.1-.81-.29-1.05s-.5-.35-.92-.35c-.54,0-.94,.17-1.19,.5-.25,.33-.38,.88-.38,1.64v3.06h-.97v-5.9h.78l.15,.81h.05c.17-.29,.41-.51,.71-.67,.31-.16,.65-.24,1.03-.24,.92,0,1.53,.33,1.8,.99h.05c.19-.31,.45-.56,.78-.73,.33-.17,.7-.26,1.11-.26,.67,0,1.16,.17,1.5,.52,.33,.34,.5,.89,.5,1.65v3.84h-.96Z"/>
    <path class="cls-8" d="M94.63,216.74c0-.21,.05-.37,.16-.47s.24-.15,.41-.15c.15,0,.28,.05,.39,.15,.11,.1,.17,.25,.17,.47s-.06,.37-.17,.47c-.11,.1-.24,.15-.39,.15-.16,0-.3-.05-.41-.15s-.16-.26-.16-.47Zm1.04,7.49h-.97v-5.9h.97v5.9Z"/>
    <path class="cls-8" d="M98.51,224.23h-.97v-8.36h.97v8.36Z"/>
    <path class="cls-8" d="M102.47,224.34c-.77,0-1.36-.27-1.78-.79-.42-.53-.63-1.28-.63-2.25s.21-1.72,.64-2.26c.42-.54,1.02-.81,1.79-.81s1.4,.29,1.83,.87h.07c-.01-.07-.02-.22-.04-.43-.02-.22-.03-.36-.03-.44v-2.35h.97v8.36h-.78l-.14-.79h-.04c-.41,.6-1.02,.9-1.84,.9Zm.16-.8c.59,0,1.02-.16,1.29-.48,.27-.32,.41-.85,.41-1.58v-.18c0-.82-.14-1.4-.41-1.75-.27-.35-.7-.52-1.29-.52-.5,0-.88,.2-1.15,.59-.27,.4-.41,.96-.41,1.69s.13,1.28,.41,1.66,.66,.56,1.17,.56Z"/>
    <path class="cls-8" d="M109.35,220.61c0,.51-.03,1.01-.09,1.5s-.16,.96-.29,1.42-.3,.9-.49,1.32c-.2,.42-.44,.82-.71,1.19h-.89c.25-.39,.47-.8,.66-1.23s.36-.88,.49-1.34c.13-.47,.23-.94,.3-1.42,.06-.48,.1-.97,.1-1.45,0-1-.13-1.97-.39-2.91-.26-.94-.65-1.81-1.16-2.6h.9c.28,.38,.51,.79,.71,1.22,.2,.43,.36,.88,.49,1.35,.13,.47,.23,.95,.29,1.45,.06,.5,.09,1,.09,1.51Z"/>
  </g>
  <path class="cls-8" d="M312.56,219.56c0,.41-.02,.82-.07,1.23s-.12,.8-.24,1.17-.27,.72-.47,1.04-.45,.6-.75,.83-.67,.42-1.09,.55-.92,.2-1.49,.2c-.08,0-.17,0-.27,0s-.2,0-.3-.01-.2-.01-.29-.02-.18-.02-.25-.04v-1.45c.14,.04,.3,.07,.47,.09s.33,.03,.51,.03c.53,0,.96-.07,1.3-.2s.61-.31,.81-.55,.34-.52,.42-.85,.14-.69,.16-1.08h-.08c-.08,.14-.17,.27-.28,.39s-.24,.23-.39,.32-.32,.16-.5,.21-.4,.08-.63,.08c-.37,0-.71-.06-1-.18s-.55-.3-.75-.53-.36-.51-.47-.85-.16-.72-.16-1.15c0-.46,.07-.88,.2-1.25s.32-.68,.56-.93,.54-.45,.88-.59,.73-.21,1.16-.21,.82,.08,1.18,.23,.69,.38,.96,.69,.48,.7,.64,1.17,.23,1.03,.23,1.67Zm-2.98-2.3c-.16,0-.31,.03-.44,.09s-.25,.15-.34,.27-.17,.28-.22,.47-.08,.41-.08,.67c0,.41,.09,.74,.26,.98s.44,.36,.8,.36c.18,0,.34-.04,.49-.11s.28-.16,.38-.28,.19-.24,.24-.38,.08-.28,.08-.43c0-.2-.02-.4-.07-.59s-.12-.38-.22-.53-.22-.29-.37-.38-.32-.15-.51-.15Z"/>
  <g>
    <path class="cls-8" d="M207.93,224.47h-1.81v-4.96c0-.1,0-.22,0-.37s0-.29,.01-.45l.02-.47c0-.16,.01-.3,.01-.43-.02,.02-.05,.06-.1,.11s-.1,.1-.16,.16-.12,.11-.18,.17-.12,.11-.18,.16l-.98,.79-.88-1.09,2.76-2.2h1.49v8.57Z"/>
    <path class="cls-8" d="M214.54,224.47h-1.81v-4.96c0-.1,0-.22,0-.37s0-.29,.01-.45l.02-.47c0-.16,.01-.3,.01-.43-.02,.02-.05,.06-.1,.11s-.1,.1-.16,.16-.12,.11-.18,.17-.12,.11-.18,.16l-.98,.79-.88-1.09,2.76-2.2h1.49v8.57Z"/>
  </g>
  <line class="cls-4" x1="360.05" y1="238.56" x2="0" y2="238.56"/>
  <g>
    <path class="cls-7" d="M291.43,12.12c0,1.3-.32,2.3-.97,3s-1.57,1.05-2.77,1.05-2.13-.35-2.77-1.05-.97-1.7-.97-3.01,.32-2.3,.97-2.99,1.57-1.03,2.78-1.03,2.13,.35,2.77,1.04c.64,.7,.96,1.69,.96,3Zm-5.73,0c0,.88,.17,1.54,.5,1.98,.33,.44,.83,.67,1.49,.67,1.33,0,1.99-.88,1.99-2.65s-.66-2.65-1.98-2.65c-.66,0-1.16,.22-1.5,.67-.34,.45-.5,1.11-.5,1.98Z"/>
    <path class="cls-7" d="M297.11,16.05h-4.74v-.97l2.78-3.79h-2.62v-1.25h4.48v1.06l-2.71,3.69h2.8v1.25Z"/>
    <path class="cls-7" d="M301.01,16.16c-.97,0-1.72-.27-2.27-.8-.54-.53-.82-1.29-.82-2.27s.25-1.78,.75-2.33c.5-.55,1.2-.83,2.09-.83s1.51,.24,1.98,.73,.71,1.15,.71,2v.79h-3.87c.02,.47,.16,.83,.41,1.09,.26,.26,.62,.39,1.08,.39,.36,0,.7-.04,1.03-.11s.66-.2,1.01-.36v1.27c-.29,.14-.59,.25-.92,.32-.33,.07-.72,.1-1.19,.1Zm-.23-5.06c-.35,0-.62,.11-.82,.33-.2,.22-.31,.53-.34,.94h2.3c0-.41-.11-.72-.32-.94-.21-.22-.48-.33-.83-.33Z"/>
    <path class="cls-7" d="M310.17,16.05h-1.64v-3.51c0-.43-.07-.76-.22-.97-.14-.22-.37-.33-.68-.33-.42,0-.72,.15-.91,.46-.19,.31-.28,.81-.28,1.52v2.83h-1.64v-6h1.25l.22,.77h.09c.16-.28,.39-.49,.7-.65,.3-.16,.65-.23,1.05-.23,.9,0,1.51,.29,1.83,.88h.14c.16-.28,.4-.5,.71-.65,.31-.15,.67-.23,1.06-.23,.68,0,1.19,.17,1.54,.52s.52,.91,.52,1.68v3.92h-1.64v-3.51c0-.43-.07-.76-.22-.97-.14-.22-.37-.33-.68-.33-.4,0-.7,.14-.9,.43-.2,.29-.3,.74-.3,1.36v3.01Z"/>
    <path class="cls-7" d="M318.89,16.16c-.71,0-1.26-.26-1.66-.77h-.09c.06,.5,.09,.79,.09,.87v2.43h-1.64V10.05h1.33l.23,.78h.08c.38-.59,.95-.89,1.7-.89,.71,0,1.26,.27,1.67,.82s.6,1.31,.6,2.28c0,.64-.09,1.2-.28,1.67-.19,.47-.46,.83-.8,1.08s-.76,.37-1.22,.37Zm-.48-4.92c-.4,0-.7,.12-.89,.37-.19,.25-.28,.66-.29,1.23v.18c0,.64,.1,1.11,.29,1.39s.5,.42,.91,.42c.73,0,1.1-.6,1.1-1.82,0-.59-.09-1.03-.27-1.33-.18-.29-.46-.44-.85-.44Z"/>
    <path class="cls-7" d="M322.49,8.49c0-.53,.3-.8,.89-.8s.89,.27,.89,.8c0,.25-.07,.45-.22,.59s-.37,.21-.67,.21c-.59,0-.89-.27-.89-.81Zm1.71,7.56h-1.64v-6h1.64v6Z"/>
    <path class="cls-7" d="M328.35,16.16c-1.87,0-2.8-1.03-2.8-3.08,0-1.02,.25-1.8,.76-2.34s1.24-.81,2.19-.81c.69,0,1.32,.14,1.87,.41l-.48,1.27c-.26-.1-.5-.19-.72-.25-.22-.07-.44-.1-.67-.1-.85,0-1.28,.61-1.28,1.82s.43,1.76,1.28,1.76c.31,0,.61-.04,.88-.13s.54-.22,.81-.39v1.4c-.26,.17-.53,.29-.8,.35s-.61,.1-1.02,.1Z"/>
    <path class="cls-7" d="M331.02,10.1c0-.42,.1-.81,.31-1.17,.21-.37,.5-.65,.86-.86s.76-.32,1.18-.32,.81,.1,1.17,.31,.65,.5,.86,.86,.32,.76,.32,1.18-.1,.8-.3,1.16c-.2,.36-.49,.65-.85,.87-.37,.22-.76,.33-1.2,.33s-.83-.11-1.2-.32-.65-.5-.85-.87c-.2-.36-.3-.75-.3-1.16Zm.34,0c0,.36,.09,.69,.27,1,.18,.31,.42,.56,.74,.74s.65,.27,1.01,.27,.69-.09,1-.27c.31-.18,.56-.43,.74-.74,.18-.31,.27-.65,.27-1.01s-.09-.69-.27-1c-.18-.31-.43-.56-.74-.74-.31-.18-.65-.27-1.01-.27s-.69,.09-1,.27c-.31,.18-.56,.42-.74,.74-.18,.31-.27,.65-.27,1.01Zm2.97-.57c0,.17-.04,.32-.13,.45-.09,.13-.21,.22-.37,.28l.75,1.24h-.55l-.64-1.11h-.4v1.11h-.49v-2.8h.82c.35,0,.61,.07,.77,.21,.16,.14,.24,.34,.24,.62Zm-1.35,.47h.32c.17,0,.3-.04,.39-.12,.09-.08,.14-.19,.14-.33,0-.15-.04-.26-.13-.33-.09-.07-.22-.1-.41-.1h-.31v.89Z"/>
    <path class="cls-7" d="M302.05,29.25h-5.27v-1.16l1.85-1.99c.23-.25,.44-.48,.63-.69,.19-.21,.35-.42,.49-.62,.14-.2,.24-.41,.32-.61,.08-.21,.11-.43,.11-.67,0-.26-.08-.47-.24-.62-.16-.15-.37-.22-.64-.22s-.55,.07-.82,.21c-.26,.14-.54,.34-.82,.6l-.9-1.07c.16-.15,.33-.29,.5-.42,.18-.13,.37-.25,.58-.36,.21-.1,.44-.19,.7-.25,.25-.06,.54-.09,.85-.09,.38,0,.71,.05,1.01,.16,.3,.1,.55,.25,.77,.44,.21,.19,.37,.42,.49,.7,.11,.27,.17,.58,.17,.92,0,.31-.05,.6-.16,.88s-.25,.56-.44,.83-.4,.54-.65,.81-.51,.54-.79,.81l-.95,.95v.08h3.2v1.4Z"/>
    <path class="cls-7" d="M311.49,29.25h-1.64v-3.51c0-.43-.07-.76-.22-.97-.14-.22-.37-.33-.68-.33-.42,0-.72,.15-.91,.46-.19,.31-.28,.81-.28,1.52v2.83h-1.64v-6h1.25l.22,.77h.09c.16-.28,.39-.49,.7-.65,.3-.16,.65-.23,1.05-.23,.9,0,1.51,.29,1.83,.88h.14c.16-.28,.4-.5,.71-.65,.31-.15,.67-.23,1.06-.23,.68,0,1.19,.17,1.54,.52s.52,.91,.52,1.68v3.92h-1.64v-3.51c0-.43-.07-.76-.22-.97-.14-.22-.37-.33-.68-.33-.4,0-.7,.14-.9,.43-.2,.29-.3,.74-.3,1.36v3.01Z"/>
    <path class="cls-7" d="M322.17,29.26c0,.86-.25,1.52-.75,1.96-.5,.45-1.25,.67-2.25,.67-.88,0-1.63-.12-2.25-.35v-1.31c.73,.31,1.51,.46,2.34,.46s1.26-.46,1.26-1.36v-.12l.05-.74h-.05c-.38,.59-.95,.89-1.7,.89s-1.28-.28-1.67-.83c-.4-.55-.59-1.31-.59-2.27s.21-1.75,.62-2.3c.41-.55,.97-.83,1.69-.83s1.32,.29,1.74,.88h.04l.13-.77h1.39v6.02Zm-2.76-1.19c.44,0,.76-.13,.95-.38,.19-.25,.29-.66,.29-1.23v-.2c0-.64-.1-1.1-.3-1.38-.2-.28-.52-.42-.96-.42-.77,0-1.16,.61-1.16,1.82,0,.6,.1,1.05,.29,1.35,.19,.3,.49,.45,.89,.45Z"/>
    <path class="cls-7" d="M292.72,38.41c0-.47,.03-.92,.09-1.37,.06-.45,.14-.88,.26-1.29,.12-.42,.27-.82,.45-1.2,.18-.38,.4-.74,.65-1.08h.81c-.22,.35-.42,.73-.6,1.12s-.32,.8-.44,1.22c-.12,.42-.21,.85-.27,1.29-.06,.44-.09,.88-.09,1.32,0,.91,.12,1.79,.36,2.65,.24,.86,.59,1.65,1.05,2.37h-.82c-.25-.35-.47-.71-.65-1.11-.18-.39-.33-.8-.45-1.23-.12-.43-.21-.87-.26-1.32-.06-.45-.09-.91-.09-1.37Z"/>
    <path class="cls-7" d="M300.08,41.79v-3.43c0-.44-.1-.76-.29-.97-.19-.21-.5-.32-.91-.32-.55,0-.95,.15-1.2,.46-.25,.3-.37,.8-.37,1.49v2.78h-.88v-5.36h.71l.13,.73h.05c.17-.26,.4-.47,.7-.61,.3-.14,.63-.22,.99-.22,.66,0,1.15,.16,1.46,.48,.32,.32,.48,.82,.48,1.49v3.49h-.87Z"/>
    <path class="cls-7" d="M302.25,37.92v-.73h4.51v.73h-4.51Zm0,2v-.73h4.51v.73h-4.51Z"/>
    <path class="cls-7" d="M312.57,40.18h-1.04v1.6h-.86v-1.6h-3.3v-.78l3.24-4.8h.92v4.77h1.04v.81Zm-1.9-.81v-1.74c0-.18,0-.37,0-.57,0-.2,0-.4,.02-.59s.01-.37,.02-.53c0-.17,.01-.3,.02-.42h-.04c-.02,.06-.05,.14-.09,.22-.03,.08-.07,.16-.11,.24-.04,.08-.08,.16-.12,.23-.04,.07-.08,.14-.12,.19l-2.01,2.97h2.43Z"/>
    <path class="cls-7" d="M314.14,41.79l2.75-6.33h-3.68v-.81h4.59v.71l-2.71,6.43h-.95Z"/>
    <path class="cls-7" d="M323.3,37.69c0,.34-.02,.68-.05,1.02-.04,.34-.09,.67-.18,.97-.09,.31-.2,.6-.35,.87s-.34,.5-.57,.7-.51,.35-.83,.46-.7,.17-1.13,.17c-.06,0-.13,0-.21,0-.08,0-.15,0-.22-.02-.08,0-.15-.02-.22-.03s-.13-.02-.19-.04v-.76c.11,.04,.24,.07,.39,.09s.29,.03,.42,.03c.44,0,.8-.08,1.08-.23,.28-.15,.51-.36,.67-.62,.17-.26,.28-.57,.35-.92,.07-.35,.11-.72,.13-1.1h-.06c-.07,.12-.14,.23-.23,.33-.09,.1-.2,.19-.32,.26-.12,.07-.26,.13-.42,.18-.16,.04-.33,.06-.52,.06-.31,0-.59-.05-.84-.14-.25-.1-.46-.24-.64-.42s-.31-.41-.41-.68c-.1-.27-.14-.58-.14-.92,0-.37,.05-.71,.15-1,.1-.3,.25-.55,.43-.76,.19-.21,.42-.37,.68-.48,.27-.11,.57-.17,.9-.17s.63,.06,.92,.19,.53,.32,.74,.58c.21,.26,.37,.59,.49,.98s.18,.86,.18,1.39Zm-2.32-2.4c-.2,0-.37,.03-.53,.1-.16,.06-.3,.17-.42,.3s-.21,.31-.27,.51c-.06,.21-.09,.45-.09,.74,0,.23,.03,.43,.08,.61,.05,.18,.13,.33,.24,.46s.24,.22,.4,.29c.16,.07,.35,.1,.56,.1s.42-.04,.6-.12c.18-.08,.33-.18,.46-.3s.23-.26,.29-.42c.07-.16,.11-.31,.11-.47,0-.22-.03-.44-.09-.65-.06-.22-.15-.41-.27-.59-.12-.17-.27-.31-.45-.42s-.39-.16-.62-.16Z"/>
    <path class="cls-7" d="M326.64,38.49c0,.46-.03,.92-.09,1.37-.06,.45-.14,.88-.26,1.29-.12,.42-.27,.82-.45,1.2-.18,.38-.4,.74-.65,1.08h-.81c.22-.36,.42-.73,.6-1.12s.32-.8,.44-1.22c.12-.42,.21-.85,.27-1.29,.06-.44,.09-.88,.09-1.32,0-.91-.12-1.79-.36-2.65-.24-.86-.59-1.65-1.05-2.37h.82c.25,.34,.47,.71,.65,1.11,.18,.39,.33,.8,.45,1.23,.12,.43,.21,.87,.26,1.32,.06,.45,.09,.91,.09,1.37Z"/>
    <path class="cls-7" d="M308.96,52.52c0,.31-.03,.59-.09,.83s-.16,.46-.29,.63-.3,.3-.5,.39c-.2,.09-.45,.13-.72,.13-.26,0-.49-.04-.69-.13-.2-.09-.36-.22-.5-.39s-.24-.38-.3-.63-.1-.53-.1-.83,.03-.59,.09-.84,.16-.46,.29-.63,.3-.3,.5-.39,.44-.13,.71-.13,.5,.04,.7,.13c.2,.09,.37,.22,.51,.39s.24,.38,.31,.63c.07,.25,.1,.53,.1,.84Zm-2.41,0c0,.43,.06,.75,.19,.97s.33,.32,.61,.32c.55,0,.82-.43,.82-1.29s-.27-1.29-.82-1.29c-.28,0-.48,.11-.61,.32s-.19,.54-.19,.97Zm5.69-1.88l-4.24,6.84h-.86l4.25-6.84h.85Zm1.36,4.96c0,.31-.03,.59-.09,.83-.06,.25-.16,.45-.29,.63-.13,.17-.3,.3-.5,.39-.2,.09-.44,.14-.73,.14-.26,0-.49-.05-.69-.14-.2-.09-.36-.22-.5-.39-.13-.17-.23-.38-.3-.63-.07-.25-.1-.52-.1-.83s.03-.59,.09-.84,.16-.46,.29-.62c.13-.17,.29-.3,.49-.39,.2-.09,.44-.13,.71-.13s.5,.04,.7,.13c.2,.09,.37,.22,.5,.39,.13,.17,.24,.38,.3,.62,.07,.25,.1,.53,.1,.84Zm-2.41,0c0,.43,.06,.75,.19,.96,.12,.21,.33,.32,.61,.32,.55,0,.82-.43,.82-1.28s-.27-1.29-.82-1.29c-.28,0-.48,.11-.61,.32-.13,.21-.19,.54-.19,.97Z"/>
  </g>
  <g>
    <line class="cls-5" x1="160.2" y1="0" x2="160.2" y2="65.2"/>
    <line class="cls-5" x1="259.38" y1="0" x2="259.38" y2="65.2"/>
  </g>
</svg>