<svg width="26" height="24" viewBox="0 0 26 24" fill="none" xmlns="http://www.w3.org/2000/svg"><path d="M1 19.4288C2.21832 20.1026 11.0364 25.1856 17.3074 21.2679C23.5777 17.3502 23.2316 10.6005 23.2316 7.50707C23.8 6.31718 25 5.71212 25 2.49107C23.8215 3.57991 22.6499 3.95002 21.4853 3.60265C20.3446 1.86328 18.7752 1.09339 16.7762 1.29423C13.7787 1.59549 12.6823 4.53612 13.0051 8.34139C8.38316 10.6782 4.75916 6.64686 2.89095 3.60265C2.26695 6.00012 1.66568 8.87886 2.89095 12.0626C3.70821 14.186 5.67305 15.9803 8.78421 17.4475C5.63074 19.1559 3.03621 19.8172 1 19.4288Z" stroke="black" stroke-width="2" stroke-linejoin="round"/></svg>